<mxfile host="app.diagrams.net" agent="Mozilla/5.0 (Windows NT 10.0; Win64; x64) AppleWebKit/537.36 (KHTML, like Gecko) Chrome/134.0.0.0 Safari/537.36" version="26.0.16">
  <diagram name="Page-1" id="ihngbPOLymBbwcB2DX4n">
    <mxGraphModel dx="1379" dy="605" grid="1" gridSize="10" guides="1" tooltips="1" connect="1" arrows="1" fold="1" page="1" pageScale="1" pageWidth="827" pageHeight="1169" math="0" shadow="0">
      <root>
        <mxCell id="0" />
        <mxCell id="1" parent="0" />
        <mxCell id="-Cb6oJnWAcC_MxixZ_9c-1" value="" style="rounded=0;whiteSpace=wrap;html=1;" vertex="1" parent="1">
          <mxGeometry x="280" y="120" width="860" height="1000" as="geometry" />
        </mxCell>
        <mxCell id="-Cb6oJnWAcC_MxixZ_9c-2" value="client" style="shape=umlActor;verticalLabelPosition=bottom;verticalAlign=top;html=1;outlineConnect=0;" vertex="1" parent="1">
          <mxGeometry x="160" y="360" width="50" height="70" as="geometry" />
        </mxCell>
        <mxCell id="-Cb6oJnWAcC_MxixZ_9c-3" value="" style="ellipse;whiteSpace=wrap;html=1;" vertex="1" parent="1">
          <mxGeometry x="318" y="230" width="120" height="80" as="geometry" />
        </mxCell>
        <mxCell id="-Cb6oJnWAcC_MxixZ_9c-4" value="&lt;font style=&quot;font-size: 24px;&quot;&gt;Smart shelf&lt;/font&gt;" style="text;html=1;align=center;verticalAlign=middle;whiteSpace=wrap;rounded=0;" vertex="1" parent="1">
          <mxGeometry x="645" y="130" width="130" height="30" as="geometry" />
        </mxCell>
        <mxCell id="-Cb6oJnWAcC_MxixZ_9c-5" value="Consulter la liste des produits d’un rayon spécifique." style="text;html=1;align=center;verticalAlign=middle;whiteSpace=wrap;rounded=0;" vertex="1" parent="1">
          <mxGeometry x="326" y="255" width="110" height="30" as="geometry" />
        </mxCell>
        <mxCell id="-Cb6oJnWAcC_MxixZ_9c-6" value="" style="ellipse;whiteSpace=wrap;html=1;" vertex="1" parent="1">
          <mxGeometry x="313" y="330" width="120" height="80" as="geometry" />
        </mxCell>
        <mxCell id="-Cb6oJnWAcC_MxixZ_9c-7" value="Rechercher un produit par nom ou catégorie." style="text;html=1;align=center;verticalAlign=middle;whiteSpace=wrap;rounded=0;" vertex="1" parent="1">
          <mxGeometry x="321" y="355" width="110" height="35" as="geometry" />
        </mxCell>
        <mxCell id="-Cb6oJnWAcC_MxixZ_9c-8" value="" style="ellipse;whiteSpace=wrap;html=1;" vertex="1" parent="1">
          <mxGeometry x="316" y="430" width="120" height="80" as="geometry" />
        </mxCell>
        <mxCell id="-Cb6oJnWAcC_MxixZ_9c-9" value="Voir les produits populaires ou en promotion dans un rayon spécifique." style="text;html=1;align=center;verticalAlign=middle;whiteSpace=wrap;rounded=0;" vertex="1" parent="1">
          <mxGeometry x="324" y="455" width="110" height="30" as="geometry" />
        </mxCell>
        <mxCell id="-Cb6oJnWAcC_MxixZ_9c-10" value="" style="ellipse;whiteSpace=wrap;html=1;" vertex="1" parent="1">
          <mxGeometry x="318" y="520" width="120" height="80" as="geometry" />
        </mxCell>
        <mxCell id="-Cb6oJnWAcC_MxixZ_9c-11" value="inscription" style="text;html=1;align=center;verticalAlign=middle;whiteSpace=wrap;rounded=0;" vertex="1" parent="1">
          <mxGeometry x="326" y="545" width="110" height="30" as="geometry" />
        </mxCell>
        <mxCell id="-Cb6oJnWAcC_MxixZ_9c-12" value="administrateur" style="shape=umlActor;verticalLabelPosition=bottom;verticalAlign=top;html=1;outlineConnect=0;" vertex="1" parent="1">
          <mxGeometry x="160" y="810" width="50" height="70" as="geometry" />
        </mxCell>
        <mxCell id="-Cb6oJnWAcC_MxixZ_9c-13" value="" style="ellipse;whiteSpace=wrap;html=1;" vertex="1" parent="1">
          <mxGeometry x="319" y="680" width="120" height="80" as="geometry" />
        </mxCell>
        <mxCell id="-Cb6oJnWAcC_MxixZ_9c-14" value="gestion des rayons" style="text;html=1;align=center;verticalAlign=middle;whiteSpace=wrap;rounded=0;" vertex="1" parent="1">
          <mxGeometry x="327" y="705" width="110" height="30" as="geometry" />
        </mxCell>
        <mxCell id="-Cb6oJnWAcC_MxixZ_9c-15" value="" style="ellipse;whiteSpace=wrap;html=1;" vertex="1" parent="1">
          <mxGeometry x="319" y="770" width="120" height="80" as="geometry" />
        </mxCell>
        <mxCell id="-Cb6oJnWAcC_MxixZ_9c-16" value="gestion des produits" style="text;html=1;align=center;verticalAlign=middle;whiteSpace=wrap;rounded=0;" vertex="1" parent="1">
          <mxGeometry x="327" y="795" width="110" height="30" as="geometry" />
        </mxCell>
        <mxCell id="-Cb6oJnWAcC_MxixZ_9c-17" value="" style="ellipse;whiteSpace=wrap;html=1;" vertex="1" parent="1">
          <mxGeometry x="322" y="870" width="120" height="80" as="geometry" />
        </mxCell>
        <mxCell id="-Cb6oJnWAcC_MxixZ_9c-18" value="Visualiser des statistiques sur les stocks." style="text;html=1;align=center;verticalAlign=middle;whiteSpace=wrap;rounded=0;" vertex="1" parent="1">
          <mxGeometry x="330" y="895" width="110" height="30" as="geometry" />
        </mxCell>
        <mxCell id="-Cb6oJnWAcC_MxixZ_9c-19" value="" style="ellipse;whiteSpace=wrap;html=1;" vertex="1" parent="1">
          <mxGeometry x="322" y="970" width="120" height="80" as="geometry" />
        </mxCell>
        <mxCell id="-Cb6oJnWAcC_MxixZ_9c-20" value="Recevoir des alertes lorsque le stock d’un produit est faible." style="text;html=1;align=center;verticalAlign=middle;whiteSpace=wrap;rounded=0;" vertex="1" parent="1">
          <mxGeometry x="330" y="995" width="110" height="30" as="geometry" />
        </mxCell>
        <mxCell id="-Cb6oJnWAcC_MxixZ_9c-21" value="" style="ellipse;whiteSpace=wrap;html=1;" vertex="1" parent="1">
          <mxGeometry x="570" y="670" width="100" height="65" as="geometry" />
        </mxCell>
        <mxCell id="-Cb6oJnWAcC_MxixZ_9c-22" value="ajouter" style="text;html=1;align=center;verticalAlign=middle;whiteSpace=wrap;rounded=0;" vertex="1" parent="1">
          <mxGeometry x="568" y="687.5" width="102" height="30" as="geometry" />
        </mxCell>
        <mxCell id="-Cb6oJnWAcC_MxixZ_9c-23" value="" style="ellipse;whiteSpace=wrap;html=1;" vertex="1" parent="1">
          <mxGeometry x="570" y="770" width="100" height="65" as="geometry" />
        </mxCell>
        <mxCell id="-Cb6oJnWAcC_MxixZ_9c-24" value="modifier" style="text;html=1;align=center;verticalAlign=middle;whiteSpace=wrap;rounded=0;" vertex="1" parent="1">
          <mxGeometry x="574" y="787" width="102" height="30" as="geometry" />
        </mxCell>
        <mxCell id="-Cb6oJnWAcC_MxixZ_9c-25" value="" style="ellipse;whiteSpace=wrap;html=1;" vertex="1" parent="1">
          <mxGeometry x="572" y="880" width="100" height="65" as="geometry" />
        </mxCell>
        <mxCell id="-Cb6oJnWAcC_MxixZ_9c-26" value="supprimer" style="text;html=1;align=center;verticalAlign=middle;whiteSpace=wrap;rounded=0;" vertex="1" parent="1">
          <mxGeometry x="576" y="897" width="102" height="30" as="geometry" />
        </mxCell>
        <mxCell id="-Cb6oJnWAcC_MxixZ_9c-29" value="" style="ellipse;whiteSpace=wrap;html=1;" vertex="1" parent="1">
          <mxGeometry x="940" y="545" width="120" height="80" as="geometry" />
        </mxCell>
        <mxCell id="-Cb6oJnWAcC_MxixZ_9c-30" value="Authentification" style="text;html=1;align=center;verticalAlign=middle;whiteSpace=wrap;rounded=0;" vertex="1" parent="1">
          <mxGeometry x="948" y="570" width="110" height="30" as="geometry" />
        </mxCell>
        <mxCell id="-Cb6oJnWAcC_MxixZ_9c-31" value="" style="endArrow=none;html=1;rounded=0;exitX=0.5;exitY=0.5;exitDx=0;exitDy=0;exitPerimeter=0;entryX=0.036;entryY=0.59;entryDx=0;entryDy=0;entryPerimeter=0;" edge="1" parent="1" source="-Cb6oJnWAcC_MxixZ_9c-2" target="-Cb6oJnWAcC_MxixZ_9c-3">
          <mxGeometry width="50" height="50" relative="1" as="geometry">
            <mxPoint x="230" y="470" as="sourcePoint" />
            <mxPoint x="280" y="420" as="targetPoint" />
          </mxGeometry>
        </mxCell>
        <mxCell id="-Cb6oJnWAcC_MxixZ_9c-32" value="" style="endArrow=none;html=1;rounded=0;exitX=0.5;exitY=0.5;exitDx=0;exitDy=0;exitPerimeter=0;entryX=0;entryY=0.5;entryDx=0;entryDy=0;" edge="1" parent="1" source="-Cb6oJnWAcC_MxixZ_9c-2" target="-Cb6oJnWAcC_MxixZ_9c-6">
          <mxGeometry width="50" height="50" relative="1" as="geometry">
            <mxPoint x="195" y="405" as="sourcePoint" />
            <mxPoint x="332" y="287" as="targetPoint" />
          </mxGeometry>
        </mxCell>
        <mxCell id="-Cb6oJnWAcC_MxixZ_9c-33" value="" style="endArrow=none;html=1;rounded=0;exitX=0.5;exitY=0.5;exitDx=0;exitDy=0;exitPerimeter=0;entryX=0.269;entryY=0.074;entryDx=0;entryDy=0;entryPerimeter=0;" edge="1" parent="1" source="-Cb6oJnWAcC_MxixZ_9c-2" target="-Cb6oJnWAcC_MxixZ_9c-8">
          <mxGeometry width="50" height="50" relative="1" as="geometry">
            <mxPoint x="195" y="405" as="sourcePoint" />
            <mxPoint x="323" y="380" as="targetPoint" />
          </mxGeometry>
        </mxCell>
        <mxCell id="-Cb6oJnWAcC_MxixZ_9c-34" value="" style="endArrow=none;html=1;rounded=0;exitX=0.5;exitY=0.5;exitDx=0;exitDy=0;exitPerimeter=0;entryX=0.078;entryY=0.243;entryDx=0;entryDy=0;entryPerimeter=0;" edge="1" parent="1" source="-Cb6oJnWAcC_MxixZ_9c-2" target="-Cb6oJnWAcC_MxixZ_9c-10">
          <mxGeometry width="50" height="50" relative="1" as="geometry">
            <mxPoint x="195" y="405" as="sourcePoint" />
            <mxPoint x="358" y="446" as="targetPoint" />
          </mxGeometry>
        </mxCell>
        <mxCell id="-Cb6oJnWAcC_MxixZ_9c-35" value="" style="endArrow=none;html=1;rounded=0;exitX=0.5;exitY=0.5;exitDx=0;exitDy=0;exitPerimeter=0;entryX=0;entryY=0.5;entryDx=0;entryDy=0;" edge="1" parent="1" source="-Cb6oJnWAcC_MxixZ_9c-12" target="-Cb6oJnWAcC_MxixZ_9c-13">
          <mxGeometry width="50" height="50" relative="1" as="geometry">
            <mxPoint x="195" y="405" as="sourcePoint" />
            <mxPoint x="337" y="549" as="targetPoint" />
          </mxGeometry>
        </mxCell>
        <mxCell id="-Cb6oJnWAcC_MxixZ_9c-36" value="" style="endArrow=none;html=1;rounded=0;exitX=0.5;exitY=0.5;exitDx=0;exitDy=0;exitPerimeter=0;entryX=0;entryY=0.75;entryDx=0;entryDy=0;" edge="1" parent="1" source="-Cb6oJnWAcC_MxixZ_9c-12" target="-Cb6oJnWAcC_MxixZ_9c-16">
          <mxGeometry width="50" height="50" relative="1" as="geometry">
            <mxPoint x="195" y="855" as="sourcePoint" />
            <mxPoint x="329" y="730" as="targetPoint" />
          </mxGeometry>
        </mxCell>
        <mxCell id="-Cb6oJnWAcC_MxixZ_9c-37" value="" style="endArrow=none;html=1;rounded=0;exitX=0.5;exitY=0.5;exitDx=0;exitDy=0;exitPerimeter=0;entryX=0.029;entryY=0.368;entryDx=0;entryDy=0;entryPerimeter=0;" edge="1" parent="1" source="-Cb6oJnWAcC_MxixZ_9c-12" target="-Cb6oJnWAcC_MxixZ_9c-17">
          <mxGeometry width="50" height="50" relative="1" as="geometry">
            <mxPoint x="195" y="855" as="sourcePoint" />
            <mxPoint x="337" y="828" as="targetPoint" />
          </mxGeometry>
        </mxCell>
        <mxCell id="-Cb6oJnWAcC_MxixZ_9c-38" value="" style="endArrow=none;html=1;rounded=0;exitX=0.5;exitY=0.5;exitDx=0;exitDy=0;exitPerimeter=0;entryX=0.32;entryY=0.086;entryDx=0;entryDy=0;entryPerimeter=0;" edge="1" parent="1" source="-Cb6oJnWAcC_MxixZ_9c-12" target="-Cb6oJnWAcC_MxixZ_9c-19">
          <mxGeometry width="50" height="50" relative="1" as="geometry">
            <mxPoint x="195" y="855" as="sourcePoint" />
            <mxPoint x="335" y="909" as="targetPoint" />
          </mxGeometry>
        </mxCell>
        <mxCell id="-Cb6oJnWAcC_MxixZ_9c-39" value="" style="endArrow=none;dashed=1;html=1;rounded=0;exitX=1;exitY=0.25;exitDx=0;exitDy=0;entryX=0;entryY=0.5;entryDx=0;entryDy=0;" edge="1" parent="1" source="-Cb6oJnWAcC_MxixZ_9c-14" target="-Cb6oJnWAcC_MxixZ_9c-22">
          <mxGeometry width="50" height="50" relative="1" as="geometry">
            <mxPoint x="420" y="890" as="sourcePoint" />
            <mxPoint x="470" y="840" as="targetPoint" />
          </mxGeometry>
        </mxCell>
        <mxCell id="-Cb6oJnWAcC_MxixZ_9c-40" value="" style="endArrow=none;dashed=1;html=1;rounded=0;exitX=1;exitY=0.5;exitDx=0;exitDy=0;entryX=0;entryY=0.25;entryDx=0;entryDy=0;" edge="1" parent="1" source="-Cb6oJnWAcC_MxixZ_9c-16" target="-Cb6oJnWAcC_MxixZ_9c-24">
          <mxGeometry width="50" height="50" relative="1" as="geometry">
            <mxPoint x="447" y="723" as="sourcePoint" />
            <mxPoint x="578" y="713" as="targetPoint" />
          </mxGeometry>
        </mxCell>
        <mxCell id="-Cb6oJnWAcC_MxixZ_9c-41" value="" style="endArrow=none;dashed=1;html=1;rounded=0;exitX=1;exitY=0.5;exitDx=0;exitDy=0;entryX=0.253;entryY=0.135;entryDx=0;entryDy=0;entryPerimeter=0;" edge="1" parent="1" source="-Cb6oJnWAcC_MxixZ_9c-14" target="-Cb6oJnWAcC_MxixZ_9c-23">
          <mxGeometry width="50" height="50" relative="1" as="geometry">
            <mxPoint x="447" y="820" as="sourcePoint" />
            <mxPoint x="584" y="805" as="targetPoint" />
          </mxGeometry>
        </mxCell>
        <mxCell id="-Cb6oJnWAcC_MxixZ_9c-42" value="" style="endArrow=none;dashed=1;html=1;rounded=0;exitX=1;exitY=0.75;exitDx=0;exitDy=0;entryX=0;entryY=0;entryDx=0;entryDy=0;" edge="1" parent="1" source="-Cb6oJnWAcC_MxixZ_9c-14" target="-Cb6oJnWAcC_MxixZ_9c-25">
          <mxGeometry width="50" height="50" relative="1" as="geometry">
            <mxPoint x="447" y="730" as="sourcePoint" />
            <mxPoint x="605" y="789" as="targetPoint" />
          </mxGeometry>
        </mxCell>
        <mxCell id="-Cb6oJnWAcC_MxixZ_9c-43" value="" style="endArrow=none;dashed=1;html=1;rounded=0;exitX=1;exitY=1;exitDx=0;exitDy=0;entryX=0;entryY=1;entryDx=0;entryDy=0;" edge="1" parent="1" source="-Cb6oJnWAcC_MxixZ_9c-16" target="-Cb6oJnWAcC_MxixZ_9c-22">
          <mxGeometry width="50" height="50" relative="1" as="geometry">
            <mxPoint x="447" y="738" as="sourcePoint" />
            <mxPoint x="597" y="899" as="targetPoint" />
          </mxGeometry>
        </mxCell>
        <mxCell id="-Cb6oJnWAcC_MxixZ_9c-44" value="" style="endArrow=none;dashed=1;html=1;rounded=0;exitX=1;exitY=1;exitDx=0;exitDy=0;entryX=0;entryY=0;entryDx=0;entryDy=0;" edge="1" parent="1" source="-Cb6oJnWAcC_MxixZ_9c-16" target="-Cb6oJnWAcC_MxixZ_9c-26">
          <mxGeometry width="50" height="50" relative="1" as="geometry">
            <mxPoint x="447" y="835" as="sourcePoint" />
            <mxPoint x="578" y="728" as="targetPoint" />
          </mxGeometry>
        </mxCell>
        <mxCell id="-Cb6oJnWAcC_MxixZ_9c-45" value="" style="endArrow=none;dashed=1;html=1;dashPattern=1 3;strokeWidth=2;rounded=0;exitX=1;exitY=0.5;exitDx=0;exitDy=0;edgeStyle=orthogonalEdgeStyle;entryX=0.5;entryY=0;entryDx=0;entryDy=0;" edge="1" parent="1" source="-Cb6oJnWAcC_MxixZ_9c-5" target="-Cb6oJnWAcC_MxixZ_9c-29">
          <mxGeometry width="50" height="50" relative="1" as="geometry">
            <mxPoint x="460" y="500" as="sourcePoint" />
            <mxPoint x="510" y="450" as="targetPoint" />
            <Array as="points">
              <mxPoint x="1030" y="270" />
              <mxPoint x="1030" y="545" />
            </Array>
          </mxGeometry>
        </mxCell>
        <mxCell id="-Cb6oJnWAcC_MxixZ_9c-46" value="" style="endArrow=none;dashed=1;html=1;dashPattern=1 3;strokeWidth=2;rounded=0;exitX=0.943;exitY=0.254;exitDx=0;exitDy=0;edgeStyle=orthogonalEdgeStyle;entryX=0.635;entryY=0.067;entryDx=0;entryDy=0;exitPerimeter=0;entryPerimeter=0;" edge="1" parent="1">
          <mxGeometry width="50" height="50" relative="1" as="geometry">
            <mxPoint x="422.1600000000001" y="350.32000000000005" as="sourcePoint" />
            <mxPoint x="1012.1999999999998" y="550.3600000000001" as="targetPoint" />
            <Array as="points">
              <mxPoint x="422" y="353" />
              <mxPoint x="1012" y="353" />
            </Array>
          </mxGeometry>
        </mxCell>
        <mxCell id="-Cb6oJnWAcC_MxixZ_9c-47" value="" style="endArrow=none;dashed=1;html=1;dashPattern=1 3;strokeWidth=2;rounded=0;edgeStyle=orthogonalEdgeStyle;exitX=1;exitY=0.5;exitDx=0;exitDy=0;entryX=0.5;entryY=0;entryDx=0;entryDy=0;" edge="1" parent="1" source="-Cb6oJnWAcC_MxixZ_9c-9" target="-Cb6oJnWAcC_MxixZ_9c-29">
          <mxGeometry width="50" height="50" relative="1" as="geometry">
            <mxPoint x="460" y="500" as="sourcePoint" />
            <mxPoint x="510" y="450" as="targetPoint" />
            <Array as="points">
              <mxPoint x="970" y="470" />
              <mxPoint x="970" y="545" />
            </Array>
          </mxGeometry>
        </mxCell>
        <mxCell id="-Cb6oJnWAcC_MxixZ_9c-48" value="" style="endArrow=none;dashed=1;html=1;dashPattern=1 3;strokeWidth=2;rounded=0;edgeStyle=orthogonalEdgeStyle;exitX=1;exitY=0;exitDx=0;exitDy=0;entryX=0.5;entryY=1;entryDx=0;entryDy=0;" edge="1" parent="1" source="-Cb6oJnWAcC_MxixZ_9c-13" target="-Cb6oJnWAcC_MxixZ_9c-29">
          <mxGeometry width="50" height="50" relative="1" as="geometry">
            <mxPoint x="444" y="480" as="sourcePoint" />
            <mxPoint x="1010" y="555" as="targetPoint" />
            <Array as="points">
              <mxPoint x="421" y="640" />
              <mxPoint x="1000" y="640" />
            </Array>
          </mxGeometry>
        </mxCell>
        <mxCell id="-Cb6oJnWAcC_MxixZ_9c-49" value="" style="endArrow=none;dashed=1;html=1;dashPattern=1 3;strokeWidth=2;rounded=0;edgeStyle=orthogonalEdgeStyle;exitX=1;exitY=0;exitDx=0;exitDy=0;entryX=0.653;entryY=0.947;entryDx=0;entryDy=0;entryPerimeter=0;" edge="1" parent="1" source="-Cb6oJnWAcC_MxixZ_9c-16" target="-Cb6oJnWAcC_MxixZ_9c-29">
          <mxGeometry width="50" height="50" relative="1" as="geometry">
            <mxPoint x="431" y="702" as="sourcePoint" />
            <mxPoint x="1010" y="635" as="targetPoint" />
            <Array as="points">
              <mxPoint x="460" y="795" />
              <mxPoint x="460" y="750" />
              <mxPoint x="1040" y="750" />
              <mxPoint x="1040" y="635" />
              <mxPoint x="1018" y="635" />
            </Array>
          </mxGeometry>
        </mxCell>
        <mxCell id="-Cb6oJnWAcC_MxixZ_9c-50" value="" style="endArrow=none;dashed=1;html=1;dashPattern=1 3;strokeWidth=2;rounded=0;edgeStyle=orthogonalEdgeStyle;exitX=1;exitY=0.75;exitDx=0;exitDy=0;entryX=1;entryY=1;entryDx=0;entryDy=0;" edge="1" parent="1" source="-Cb6oJnWAcC_MxixZ_9c-18" target="-Cb6oJnWAcC_MxixZ_9c-29">
          <mxGeometry width="50" height="50" relative="1" as="geometry">
            <mxPoint x="520" y="990" as="sourcePoint" />
            <mxPoint x="570" y="940" as="targetPoint" />
            <Array as="points">
              <mxPoint x="440" y="960" />
              <mxPoint x="1070" y="960" />
              <mxPoint x="1070" y="613" />
            </Array>
          </mxGeometry>
        </mxCell>
        <mxCell id="-Cb6oJnWAcC_MxixZ_9c-51" value="" style="endArrow=none;dashed=1;html=1;dashPattern=1 3;strokeWidth=2;rounded=0;edgeStyle=orthogonalEdgeStyle;exitX=1;exitY=0.75;exitDx=0;exitDy=0;" edge="1" parent="1" source="-Cb6oJnWAcC_MxixZ_9c-20">
          <mxGeometry width="50" height="50" relative="1" as="geometry">
            <mxPoint x="520" y="870" as="sourcePoint" />
            <mxPoint x="1010" y="630" as="targetPoint" />
          </mxGeometry>
        </mxCell>
        <mxCell id="-Cb6oJnWAcC_MxixZ_9c-52" value="&amp;lt;&amp;lt;include&amp;gt;&amp;gt;" style="text;html=1;align=center;verticalAlign=middle;whiteSpace=wrap;rounded=0;" vertex="1" parent="1">
          <mxGeometry x="630" y="240" width="60" height="30" as="geometry" />
        </mxCell>
        <mxCell id="-Cb6oJnWAcC_MxixZ_9c-53" value="&amp;lt;&amp;lt;include&amp;gt;&amp;gt;" style="text;html=1;align=center;verticalAlign=middle;whiteSpace=wrap;rounded=0;" vertex="1" parent="1">
          <mxGeometry x="640" y="325" width="60" height="30" as="geometry" />
        </mxCell>
        <mxCell id="-Cb6oJnWAcC_MxixZ_9c-54" value="&amp;lt;&amp;lt;include&amp;gt;&amp;gt;" style="text;html=1;align=center;verticalAlign=middle;whiteSpace=wrap;rounded=0;" vertex="1" parent="1">
          <mxGeometry x="650" y="444" width="60" height="30" as="geometry" />
        </mxCell>
        <mxCell id="-Cb6oJnWAcC_MxixZ_9c-55" value="&amp;lt;&amp;lt;include&amp;gt;&amp;gt;" style="text;html=1;align=center;verticalAlign=middle;whiteSpace=wrap;rounded=0;" vertex="1" parent="1">
          <mxGeometry x="660" y="612" width="60" height="30" as="geometry" />
        </mxCell>
        <mxCell id="-Cb6oJnWAcC_MxixZ_9c-56" value="&amp;lt;&amp;lt;include&amp;gt;&amp;gt;" style="text;html=1;align=center;verticalAlign=middle;whiteSpace=wrap;rounded=0;" vertex="1" parent="1">
          <mxGeometry x="800" y="721" width="60" height="30" as="geometry" />
        </mxCell>
        <mxCell id="-Cb6oJnWAcC_MxixZ_9c-57" value="&amp;lt;&amp;lt;include&amp;gt;&amp;gt;" style="text;html=1;align=center;verticalAlign=middle;whiteSpace=wrap;rounded=0;" vertex="1" parent="1">
          <mxGeometry x="810" y="929" width="60" height="30" as="geometry" />
        </mxCell>
        <mxCell id="-Cb6oJnWAcC_MxixZ_9c-58" value="&amp;lt;&amp;lt;include&amp;gt;&amp;gt;" style="text;html=1;align=center;verticalAlign=middle;whiteSpace=wrap;rounded=0;" vertex="1" parent="1">
          <mxGeometry x="804" y="989" width="60" height="30" as="geometry" />
        </mxCell>
        <mxCell id="-Cb6oJnWAcC_MxixZ_9c-59" value="&amp;lt;&amp;lt;extend&amp;gt;&amp;gt;" style="text;html=1;align=center;verticalAlign=middle;whiteSpace=wrap;rounded=0;rotation=-5;" vertex="1" parent="1">
          <mxGeometry x="473" y="683" width="60" height="30" as="geometry" />
        </mxCell>
        <mxCell id="-Cb6oJnWAcC_MxixZ_9c-60" value="&amp;lt;&amp;lt;extend&amp;gt;&amp;gt;" style="text;html=1;align=center;verticalAlign=middle;whiteSpace=wrap;rounded=0;rotation=30;" vertex="1" parent="1">
          <mxGeometry x="498.86" y="717.25" width="43" height="30" as="geometry" />
        </mxCell>
        <mxCell id="-Cb6oJnWAcC_MxixZ_9c-61" value="&amp;lt;&amp;lt;extend&amp;gt;&amp;gt;" style="text;html=1;align=center;verticalAlign=middle;whiteSpace=wrap;rounded=0;rotation=30;" vertex="1" parent="1">
          <mxGeometry x="473" y="835" width="60" height="30" as="geometry" />
        </mxCell>
        <mxCell id="-Cb6oJnWAcC_MxixZ_9c-62" value="&amp;lt;&amp;lt;extend&amp;gt;&amp;gt;" style="text;html=1;align=center;verticalAlign=middle;whiteSpace=wrap;rounded=0;rotation=45;" vertex="1" parent="1">
          <mxGeometry x="520" y="821" width="60" height="30" as="geometry" />
        </mxCell>
      </root>
    </mxGraphModel>
  </diagram>
</mxfile>
